<svg enable-background="new 0 0 512 512" viewBox="0 0 512 512" xmlns="http://www.w3.org/2000/svg"><path d="m412 512h-312c-55.2 0-100-44.8-100-100v-312c0-55.2 44.8-100 100-100h312c55.2 0 100 44.8 100 100v312c0 55.2-44.8 100-100 100z" fill="#ff851b"/><path d="m249.5 452.6h-105.9v-393.2h77.7l28.2 56.3h-49.5v112.1h21.4l28.2 56.3h-49.6v112.1h21.4zm38.9-4.6-25.9-51.8c28.2-3.4 49.6-27 49.6-55.8 0-9-1.7-18-5.6-25.3l-43.9-87.9c28.2-3.4 49.6-27 49.6-55.8 0-9-1.7-17.5-5.6-24.8l-43.9-87.3c59.1 3.4 105.9 52.4 105.9 112.1 0 36-16.9 65.9-43.4 84.5 26.5 18.6 43.4 48.4 43.4 84.5-.2 50.8-34 93.6-80.2 107.6z"/></svg>